<?xml version="1.0" standalone="no"?>
<!DOCTYPE svg PUBLIC "-//W3C//DTD SVG 20010904//EN"
 "http://www.w3.org/TR/2001/REC-SVG-20010904/DTD/svg10.dtd">
<svg version="1.0" xmlns="http://www.w3.org/2000/svg"
 width="67.000000pt" height="67.000000pt" viewBox="0 0 67.000000 67.000000"
 preserveAspectRatio="xMidYMid meet">

<g transform="translate(0.000000,67.000000) scale(0.100000,-0.100000)"
fill="#000000" stroke="none">
<path d="M222 641 c-164 -57 -254 -250 -192 -413 29 -79 94 -148 170 -182 55
-25 71 -28 143 -24 96 4 155 28 216 89 61 61 85 120 89 216 4 72 1 88 -24 143
-68 152 -242 226 -402 171z m243 -28 c87 -45 154 -140 170 -240 9 -56 -17
-152 -55 -208 -59 -86 -189 -145 -283 -130 -100 16 -195 83 -240 170 -29 57
-35 167 -12 236 23 68 109 158 175 182 63 23 191 18 245 -10z"/>
<path d="M117 373 c-14 -13 -6 -42 15 -57 27 -19 177 -23 195 -5 8 8 13 8 17
0 11 -18 157 -14 184 5 25 17 30 64 7 64 -8 0 -15 -6 -15 -14 0 -7 -7 -19 -15
-26 -11 -9 -24 -6 -66 16 -50 28 -52 28 -81 11 -28 -16 -32 -16 -48 -2 -23 21
-35 19 -92 -12 -48 -27 -50 -27 -63 -9 -8 10 -12 23 -9 27 6 10 -20 12 -29 2z"/>
</g>
</svg>
