<?xml version="1.0" standalone="no"?>
<!DOCTYPE svg PUBLIC "-//W3C//DTD SVG 20010904//EN"
 "http://www.w3.org/TR/2001/REC-SVG-20010904/DTD/svg10.dtd">
<svg version="1.0" xmlns="http://www.w3.org/2000/svg"
 width="67.000000pt" height="67.000000pt" viewBox="0 0 67.000000 67.000000"
 preserveAspectRatio="xMidYMid meet">

<g transform="translate(0.000000,67.000000) scale(0.100000,-0.100000)"
fill="#000000" stroke="none">
<path d="M271 650 c-101 -21 -191 -93 -234 -188 -31 -68 -30 -189 1 -257 30
-66 103 -138 166 -166 78 -35 192 -33 268 4 192 94 241 347 99 510 -65 73
-200 117 -300 97z m194 -44 c106 -53 169 -153 169 -271 0 -95 -29 -160 -101
-225 -120 -110 -294 -106 -412 9 -169 165 -89 451 144 512 53 14 143 3 200
-25z"/>
<path d="M290 505 c0 -11 12 -15 45 -15 33 0 45 4 45 15 0 11 -12 15 -45 15
-33 0 -45 -4 -45 -15z"/>
<path d="M270 412 c0 -33 3 -101 7 -152 5 -78 9 -93 25 -98 10 -2 18 -11 18
-18 0 -8 5 -14 10 -14 6 0 10 6 10 14 0 8 11 16 24 20 22 5 23 10 30 146 4 77
4 145 1 150 -3 6 -33 10 -66 10 l-59 0 0 -58z m88 -76 c-4 -27 -43 -34 -52 -9
-5 11 -1 22 9 30 23 16 47 5 43 -21z"/>
<path d="M317 344 c-9 -10 2 -24 19 -24 8 0 14 7 14 15 0 15 -21 21 -33 9z"/>
</g>
</svg>
