<?xml version="1.0" standalone="no"?>
<!DOCTYPE svg PUBLIC "-//W3C//DTD SVG 20010904//EN"
 "http://www.w3.org/TR/2001/REC-SVG-20010904/DTD/svg10.dtd">
<svg version="1.0" xmlns="http://www.w3.org/2000/svg"
 width="67.000000pt" height="67.000000pt" viewBox="0 0 67.000000 67.000000"
 preserveAspectRatio="xMidYMid meet">

<g transform="translate(0.000000,67.000000) scale(0.100000,-0.100000)"
fill="#000000" stroke="none">
<path d="M264 651 c-166 -43 -269 -198 -242 -367 11 -73 39 -126 94 -180 122
-118 345 -111 456 15 109 124 110 310 2 430 -58 64 -130 100 -214 106 -36 2
-79 1 -96 -4z m199 -40 c61 -29 118 -86 148 -147 35 -71 34 -188 -3 -259 -57
-109 -154 -169 -273 -169 -57 0 -82 5 -127 27 -148 73 -214 246 -149 395 30
66 111 142 177 165 66 23 167 17 227 -12z"/>
<path d="M250 524 c0 -17 63 -158 74 -166 17 -11 32 9 65 88 42 100 31 109
-14 11 -19 -43 -37 -77 -40 -77 -2 0 -23 35 -44 78 -22 42 -40 72 -41 66z"/>
<path d="M305 310 c-12 -24 -20 -29 -38 -25 -16 4 -29 0 -42 -14 -15 -18 -16
-25 -7 -47 10 -20 18 -25 39 -22 28 3 42 22 64 83 l11 30 14 -30 c7 -16 25
-57 39 -89 14 -33 28 -56 32 -52 4 3 1 12 -5 18 -19 19 -14 35 13 42 14 4 25
11 25 16 0 6 -8 5 -19 -2 -15 -9 -23 -9 -35 1 -20 17 -20 26 0 45 12 13 20 14
37 4 20 -10 21 -10 8 6 -10 11 -22 15 -37 12 -19 -5 -27 0 -39 24 -9 16 -22
30 -30 30 -8 0 -21 -14 -30 -30z m-15 -64 c0 -23 -30 -41 -48 -30 -23 15 -25
29 -7 48 12 12 21 13 36 6 10 -6 19 -17 19 -24z"/>
</g>
</svg>
