<svg xmlns="http://www.w3.org/2000/svg" width="89.333" height="89.333" version="1.0" viewBox="0 0 67 67"><path d="M27.1 2C17 4.1 8 11.3 3.7 20.8c-3.1 6.8-3 18.9.1 25.7 3 6.6 10.3 13.8 16.6 16.6 7.8 3.5 19.2 3.3 26.8-.4 19.2-9.4 24.1-34.7 9.9-51-6.5-7.3-20-11.7-30-9.7zm19.4 4.4c10.6 5.3 16.9 15.3 16.9 27.1 0 9.5-2.9 16-10.1 22.5-12 11-29.4 10.6-41.2-.9C-4.8 38.6 3.2 10 26.5 3.9c5.3-1.4 14.3-.3 20 2.5z"/><path d="M29 16.5c0 1.1 1.2 1.5 4.5 1.5s4.5-.4 4.5-1.5-1.2-1.5-4.5-1.5-4.5.4-4.5 1.5zM27 25.8c0 3.3.3 10.1.7 15.2.5 7.8.9 9.3 2.5 9.8 1 .2 1.8 1.1 1.8 1.8 0 .8.5 1.4 1 1.4.6 0 1-.6 1-1.4 0-.8 1.1-1.6 2.4-2 2.2-.5 2.3-1 3-14.6.4-7.7.4-14.5.1-15-.3-.6-3.3-1-6.6-1H27v5.8zm8.8 7.6c-.4 2.7-4.3 3.4-5.2.9-.5-1.1-.1-2.2.9-3 2.3-1.6 4.7-.5 4.3 2.1z"/><path d="M31.7 32.6c-.9 1 .2 2.4 1.9 2.4.8 0 1.4-.7 1.4-1.5 0-1.5-2.1-2.1-3.3-.9z"/></svg>