<svg xmlns="http://www.w3.org/2000/svg" width="89.333" height="89.333" version="1.0" viewBox="0 0 67 67"><path d="M26.4 1.9C9.8 6.2-.5 21.7 2.2 38.6c1.1 7.3 3.9 12.6 9.4 18 12.2 11.8 34.5 11.1 45.6-1.5 10.9-12.4 11-31 .2-43-5.8-6.4-13-10-21.4-10.6-3.6-.2-7.9-.1-9.6.4zm19.9 4c6.1 2.9 11.8 8.6 14.8 14.7 3.5 7.1 3.4 18.8-.3 25.9-5.7 10.9-15.4 16.9-27.3 16.9-5.7 0-8.2-.5-12.7-2.7C6 53.4-.6 36.1 5.9 21.2 8.9 14.6 17 7 23.6 4.7 30.2 2.4 40.3 3 46.3 5.9z"/><path d="M25 14.6c0 1.7 6.3 15.8 7.4 16.6 1.7 1.1 3.2-.9 6.5-8.8 4.2-10 3.1-10.9-1.4-1.1-1.9 4.3-3.7 7.7-4 7.7-.2 0-2.3-3.5-4.4-7.8-2.2-4.2-4-7.2-4.1-6.6zM30.5 36c-1.2 2.4-2 2.9-3.8 2.5-1.6-.4-2.9 0-4.2 1.4-1.5 1.8-1.6 2.5-.7 4.7 1 2 1.8 2.5 3.9 2.2 2.8-.3 4.2-2.2 6.4-8.3l1.1-3 1.4 3c.7 1.6 2.5 5.7 3.9 8.9 1.4 3.3 2.8 5.6 3.2 5.2.4-.3.1-1.2-.5-1.8-1.9-1.9-1.4-3.5 1.3-4.2 1.4-.4 2.5-1.1 2.5-1.6 0-.6-.8-.5-1.9.2-1.5.9-2.3.9-3.5-.1-2-1.7-2-2.6 0-4.5 1.2-1.3 2-1.4 3.7-.4 2 1 2.1 1 .8-.6-1-1.1-2.2-1.5-3.7-1.2-1.9.5-2.7 0-3.9-2.4-.9-1.6-2.2-3-3-3-.8 0-2.1 1.4-3 3zM29 42.4c0 2.3-3 4.1-4.8 3-2.3-1.5-2.5-2.9-.7-4.8 1.2-1.2 2.1-1.3 3.6-.6 1 .6 1.9 1.7 1.9 2.4z"/></svg>