<svg xmlns="http://www.w3.org/2000/svg" width="89.333" height="89.333" version="1.0" viewBox="0 0 67 67"><path d="M22.2 2.9C5.8 8.6-3.2 27.9 3 44.2c2.9 7.9 9.4 14.8 17 18.2 5.5 2.5 7.1 2.8 14.3 2.4 9.6-.4 15.5-2.8 21.6-8.9 6.1-6.1 8.5-12 8.9-21.6.4-7.2.1-8.8-2.4-14.3C55.6 4.8 38.2-2.6 22.2 2.9zm24.3 2.8c8.7 4.5 15.4 14 17 24 .9 5.6-1.7 15.2-5.5 20.8-5.9 8.6-18.9 14.5-28.3 13-10-1.6-19.5-8.3-24-17-2.9-5.7-3.5-16.7-1.2-23.6C6.8 16.1 15.4 7.1 22 4.7c6.3-2.3 19.1-1.8 24.5 1z"/><path d="M11.7 29.7c-1.4 1.3-.6 4.2 1.5 5.7 2.7 1.9 17.7 2.3 19.5.5.8-.8 1.3-.8 1.7 0 1.1 1.8 15.7 1.4 18.4-.5 2.5-1.7 3-6.4.7-6.4-.8 0-1.5.6-1.5 1.4 0 .7-.7 1.9-1.5 2.6-1.1.9-2.4.6-6.6-1.6-5-2.8-5.2-2.8-8.1-1.1-2.8 1.6-3.2 1.6-4.8.2-2.3-2.1-3.5-1.9-9.2 1.2-4.8 2.7-5 2.7-6.3.9-.8-1-1.2-2.3-.9-2.7.6-1-2-1.2-2.9-.2z"/></svg>